# xmcd
#
# Track frame offsets:
# 150
# 10829
# 25039
# 39182
# 54949
# 68465
# 86119
# 102554
# 116002
# 129095
# 141839
# 153543
# 170746
# 187322
# 202443
# 217233
# 229752
# 245776
# 260648
# 272405
# 287966
# 305312
# 318754
#
# Disc length: 4444 seconds
#
#
# Revision: 0
# Processed by: cddbd v1.5PL3 Copyright (c) Steve Scherf et al.
# Submitted via: FreeRIP 2.53 
#
DISCID=57115a17
DTITLE=Mandrell, Barbara - The Best Of
DYEAR=1900
DGENRE=
TTITLE0=Sleeping Single In A Double Bed
TTITLE1=Standing Room Only
TTITLE2=(If Loving You Is Wrong) I Don't Wanna Be Right
TTITLE3=Woman To Woman
TTITLE4=Married But Not To Each Other
TTITLE5=Years
TTITLE6=I Was Country When Country Wasn't Cool (Duet with George Jones)
TTITLE7=Till You're Gone
TTITLE8=Wish You Were Here
TTITLE9=One Of A Kind, A Pair Of Fools
TTITLE10=Happy Birthday Dear Heartache
TTITLE11=Only A Lonely Heart Knows
TTITLE12=Fast Lanes And Country Roads
TTITLE13=Darlin'
TTITLE14=To Me
TTITLE15=That's What Friends Are For
TTITLE16=After The Lovin'
TTITLE17=The Best Of Strangers
TTITLE18=You Can Eat Crackers In My Bed Anytime
TTITLE19=There's No Love In Tennessee
TTITLE20=When You Get To The Heart
TTITLE21=Tonight
TTITLE22=No One Mends A Broken Heart Like You
EXTD=
EXTT0=
EXTT1=
EXTT2=
EXTT3=
EXTT4=
EXTT5=
EXTT6=
EXTT7=
EXTT8=
EXTT9=
EXTT10=
EXTT11=
EXTT12=
EXTT13=
EXTT14=
EXTT15=
EXTT16=
EXTT17=
EXTT18=
EXTT19=
EXTT20=
EXTT21=
EXTT22=
PLAYORDER=
